<svg width="24" height="24" viewBox="0 0 24 24" fill="none" xmlns="http://www.w3.org/2000/svg">
<g clip-path="url(#clip0)">
<path d="M15.8219 14.1194L12.5689 11.6097V6.4974C12.5689 5.98337 12.165 5.56787 11.6653 5.56787C11.1656 5.56787 10.7617 5.98337 10.7617 6.4974V12.0745C10.7617 12.3673 10.8955 12.6434 11.1232 12.8181L14.7375 15.6067C14.9001 15.7322 15.0899 15.7926 15.2787 15.7926C15.5543 15.7926 15.8254 15.6652 16.0025 15.4198C16.3026 15.0099 16.2213 14.4271 15.8219 14.1194Z" fill="#A4A4A4"/>
<path d="M11.6653 0C5.23265 0 0 5.3828 0 12C0 18.6172 5.23265 24 11.6653 24C18.0979 24 23.3305 18.6172 23.3305 12C23.3305 5.3828 18.0979 0 11.6653 0ZM11.6653 22.141C6.23021 22.141 1.80716 17.591 1.80716 12C1.80716 6.40898 6.23021 1.85902 11.6653 1.85902C17.1012 1.85902 21.5234 6.40898 21.5234 12C21.5234 17.591 17.1003 22.141 11.6653 22.141Z" fill="#A4A4A4"/>
</g>
<defs>
<clipPath id="clip0">
<rect width="23.3305" height="24" fill="white"/>
</clipPath>
</defs>
</svg>
